# ComicShop frame only; units meters. Logo is intentionally blank.
mtllib ShelfFrame.mtl
usemtl DarkWood
v -2.4767831 0.0000000 -0.3802679
v -2.4767831 3.0159997 -0.3802679
v -2.2610198 3.0159997 -0.3802679
v -2.2610198 0.0000000 -0.3802679
f 1 2 3 4
usemtl DarkWood
v -2.4767831 0.0000000 0.3802679
v -2.2610198 0.0000000 0.3802679
v -2.2610198 3.0159997 0.3802679
v -2.4767831 3.0159997 0.3802679
f 5 6 7 8
usemtl DarkWood
v -2.4767831 0.0000000 -0.3802679
v -2.4767831 0.0000000 0.3802679
v -2.4767831 3.0159997 0.3802679
v -2.4767831 3.0159997 -0.3802679
f 9 10 11 12
usemtl DarkWood
v -2.2610198 0.0000000 -0.3802679
v -2.2610198 3.0159997 -0.3802679
v -2.2610198 3.0159997 0.3802679
v -2.2610198 0.0000000 0.3802679
f 13 14 15 16
usemtl DarkWood
v -2.4767831 0.0000000 -0.3802679
v -2.2610198 0.0000000 -0.3802679
v -2.2610198 0.0000000 0.3802679
v -2.4767831 0.0000000 0.3802679
f 17 18 19 20
usemtl DarkWood
v -2.4767831 3.0159997 -0.3802679
v -2.4767831 3.0159997 0.3802679
v -2.2610198 3.0159997 0.3802679
v -2.2610198 3.0159997 -0.3802679
f 21 22 23 24
usemtl DarkWood
v -2.5145416 0.0000000 -0.4029231
v -2.5145416 0.1682928 -0.4029231
v -2.2232612 0.1682928 -0.4029231
v -2.2232612 0.0000000 -0.4029231
f 25 26 27 28
usemtl DarkWood
v -2.5145416 0.0000000 0.4029231
v -2.2232612 0.0000000 0.4029231
v -2.2232612 0.1682928 0.4029231
v -2.5145416 0.1682928 0.4029231
f 29 30 31 32
usemtl DarkWood
v -2.5145416 0.0000000 -0.4029231
v -2.5145416 0.0000000 0.4029231
v -2.5145416 0.1682928 0.4029231
v -2.5145416 0.1682928 -0.4029231
f 33 34 35 36
usemtl DarkWood
v -2.2232612 0.0000000 -0.4029231
v -2.2232612 0.1682928 -0.4029231
v -2.2232612 0.1682928 0.4029231
v -2.2232612 0.0000000 0.4029231
f 37 38 39 40
usemtl DarkWood
v -2.5145416 0.0000000 -0.4029231
v -2.2232612 0.0000000 -0.4029231
v -2.2232612 0.0000000 0.4029231
v -2.5145416 0.0000000 0.4029231
f 41 42 43 44
usemtl DarkWood
v -2.5145416 0.1682928 -0.4029231
v -2.5145416 0.1682928 0.4029231
v -2.2232612 0.1682928 0.4029231
v -2.2232612 0.1682928 -0.4029231
f 45 46 47 48
usemtl DarkWood
v -2.5220934 2.9949631 -0.4191053
v -2.5220934 3.0696091 -0.4191053
v -2.2157095 3.0696091 -0.4191053
v -2.2157095 2.9949631 -0.4191053
f 49 50 51 52
usemtl DarkWood
v -2.5220934 2.9949631 0.4191053
v -2.2157095 2.9949631 0.4191053
v -2.2157095 3.0696091 0.4191053
v -2.5220934 3.0696091 0.4191053
f 53 54 55 56
usemtl DarkWood
v -2.5220934 2.9949631 -0.4191053
v -2.5220934 2.9949631 0.4191053
v -2.5220934 3.0696091 0.4191053
v -2.5220934 3.0696091 -0.4191053
f 57 58 59 60
usemtl DarkWood
v -2.2157095 2.9949631 -0.4191053
v -2.2157095 3.0696091 -0.4191053
v -2.2157095 3.0696091 0.4191053
v -2.2157095 2.9949631 0.4191053
f 61 62 63 64
usemtl DarkWood
v -2.5220934 2.9949631 -0.4191053
v -2.2157095 2.9949631 -0.4191053
v -2.2157095 2.9949631 0.4191053
v -2.5220934 2.9949631 0.4191053
f 65 66 67 68
usemtl DarkWood
v -2.5220934 3.0696091 -0.4191053
v -2.5220934 3.0696091 0.4191053
v -2.2157095 3.0696091 0.4191053
v -2.2157095 3.0696091 -0.4191053
f 69 70 71 72
usemtl Ink
v -2.4339451 0.1900080 0.3802679
v -2.4339451 2.8259917 0.3802679
v -2.4290005 2.8259917 0.3802679
v -2.4290005 0.1900080 0.3802679
f 73 74 75 76
usemtl Ink
v -2.4339451 0.1900080 0.3852125
v -2.4290005 0.1900080 0.3852125
v -2.4290005 2.8259917 0.3852125
v -2.4339451 2.8259917 0.3852125
f 77 78 79 80
usemtl Ink
v -2.4339451 0.1900080 0.3802679
v -2.4339451 0.1900080 0.3852125
v -2.4339451 2.8259917 0.3852125
v -2.4339451 2.8259917 0.3802679
f 81 82 83 84
usemtl Ink
v -2.4290005 0.1900080 0.3802679
v -2.4290005 2.8259917 0.3802679
v -2.4290005 2.8259917 0.3852125
v -2.4290005 0.1900080 0.3852125
f 85 86 87 88
usemtl Ink
v -2.4339451 0.1900080 0.3802679
v -2.4290005 0.1900080 0.3802679
v -2.4290005 0.1900080 0.3852125
v -2.4339451 0.1900080 0.3852125
f 89 90 91 92
usemtl Ink
v -2.4339451 2.8259917 0.3802679
v -2.4339451 2.8259917 0.3852125
v -2.4290005 2.8259917 0.3852125
v -2.4290005 2.8259917 0.3802679
f 93 94 95 96
usemtl Ink
v -2.3088023 0.1900080 0.3802679
v -2.3088023 2.8259917 0.3802679
v -2.3038578 2.8259917 0.3802679
v -2.3038578 0.1900080 0.3802679
f 97 98 99 100
usemtl Ink
v -2.3088023 0.1900080 0.3852125
v -2.3038578 0.1900080 0.3852125
v -2.3038578 2.8259917 0.3852125
v -2.3088023 2.8259917 0.3852125
f 101 102 103 104
usemtl Ink
v -2.3088023 0.1900080 0.3802679
v -2.3088023 0.1900080 0.3852125
v -2.3088023 2.8259917 0.3852125
v -2.3088023 2.8259917 0.3802679
f 105 106 107 108
usemtl Ink
v -2.3038578 0.1900080 0.3802679
v -2.3038578 2.8259917 0.3802679
v -2.3038578 2.8259917 0.3852125
v -2.3038578 0.1900080 0.3852125
f 109 110 111 112
usemtl Ink
v -2.3088023 0.1900080 0.3802679
v -2.3038578 0.1900080 0.3802679
v -2.3038578 0.1900080 0.3852125
v -2.3088023 0.1900080 0.3852125
f 113 114 115 116
usemtl Ink
v -2.3088023 2.8259917 0.3802679
v -2.3088023 2.8259917 0.3852125
v -2.3038578 2.8259917 0.3852125
v -2.3038578 2.8259917 0.3802679
f 117 118 119 120
usemtl DarkWood
v 2.2610198 0.0000000 -0.3802679
v 2.2610198 3.0159997 -0.3802679
v 2.4767831 3.0159997 -0.3802679
v 2.4767831 0.0000000 -0.3802679
f 121 122 123 124
usemtl DarkWood
v 2.2610198 0.0000000 0.3802679
v 2.4767831 0.0000000 0.3802679
v 2.4767831 3.0159997 0.3802679
v 2.2610198 3.0159997 0.3802679
f 125 126 127 128
usemtl DarkWood
v 2.2610198 0.0000000 -0.3802679
v 2.2610198 0.0000000 0.3802679
v 2.2610198 3.0159997 0.3802679
v 2.2610198 3.0159997 -0.3802679
f 129 130 131 132
usemtl DarkWood
v 2.4767831 0.0000000 -0.3802679
v 2.4767831 3.0159997 -0.3802679
v 2.4767831 3.0159997 0.3802679
v 2.4767831 0.0000000 0.3802679
f 133 134 135 136
usemtl DarkWood
v 2.2610198 0.0000000 -0.3802679
v 2.4767831 0.0000000 -0.3802679
v 2.4767831 0.0000000 0.3802679
v 2.2610198 0.0000000 0.3802679
f 137 138 139 140
usemtl DarkWood
v 2.2610198 3.0159997 -0.3802679
v 2.2610198 3.0159997 0.3802679
v 2.4767831 3.0159997 0.3802679
v 2.4767831 3.0159997 -0.3802679
f 141 142 143 144
usemtl DarkWood
v 2.2232612 0.0000000 -0.4029231
v 2.2232612 0.1682928 -0.4029231
v 2.5145416 0.1682928 -0.4029231
v 2.5145416 0.0000000 -0.4029231
f 145 146 147 148
usemtl DarkWood
v 2.2232612 0.0000000 0.4029231
v 2.5145416 0.0000000 0.4029231
v 2.5145416 0.1682928 0.4029231
v 2.2232612 0.1682928 0.4029231
f 149 150 151 152
usemtl DarkWood
v 2.2232612 0.0000000 -0.4029231
v 2.2232612 0.0000000 0.4029231
v 2.2232612 0.1682928 0.4029231
v 2.2232612 0.1682928 -0.4029231
f 153 154 155 156
usemtl DarkWood
v 2.5145416 0.0000000 -0.4029231
v 2.5145416 0.1682928 -0.4029231
v 2.5145416 0.1682928 0.4029231
v 2.5145416 0.0000000 0.4029231
f 157 158 159 160
usemtl DarkWood
v 2.2232612 0.0000000 -0.4029231
v 2.5145416 0.0000000 -0.4029231
v 2.5145416 0.0000000 0.4029231
v 2.2232612 0.0000000 0.4029231
f 161 162 163 164
usemtl DarkWood
v 2.2232612 0.1682928 -0.4029231
v 2.2232612 0.1682928 0.4029231
v 2.5145416 0.1682928 0.4029231
v 2.5145416 0.1682928 -0.4029231
f 165 166 167 168
usemtl DarkWood
v 2.2157095 2.9949631 -0.4191053
v 2.2157095 3.0696091 -0.4191053
v 2.5220934 3.0696091 -0.4191053
v 2.5220934 2.9949631 -0.4191053
f 169 170 171 172
usemtl DarkWood
v 2.2157095 2.9949631 0.4191053
v 2.5220934 2.9949631 0.4191053
v 2.5220934 3.0696091 0.4191053
v 2.2157095 3.0696091 0.4191053
f 173 174 175 176
usemtl DarkWood
v 2.2157095 2.9949631 -0.4191053
v 2.2157095 2.9949631 0.4191053
v 2.2157095 3.0696091 0.4191053
v 2.2157095 3.0696091 -0.4191053
f 177 178 179 180
usemtl DarkWood
v 2.5220934 2.9949631 -0.4191053
v 2.5220934 3.0696091 -0.4191053
v 2.5220934 3.0696091 0.4191053
v 2.5220934 2.9949631 0.4191053
f 181 182 183 184
usemtl DarkWood
v 2.2157095 2.9949631 -0.4191053
v 2.5220934 2.9949631 -0.4191053
v 2.5220934 2.9949631 0.4191053
v 2.2157095 2.9949631 0.4191053
f 185 186 187 188
usemtl DarkWood
v 2.2157095 3.0696091 -0.4191053
v 2.2157095 3.0696091 0.4191053
v 2.5220934 3.0696091 0.4191053
v 2.5220934 3.0696091 -0.4191053
f 189 190 191 192
usemtl Ink
v 2.3038578 0.1900080 0.3802679
v 2.3038578 2.8259917 0.3802679
v 2.3088023 2.8259917 0.3802679
v 2.3088023 0.1900080 0.3802679
f 193 194 195 196
usemtl Ink
v 2.3038578 0.1900080 0.3852125
v 2.3088023 0.1900080 0.3852125
v 2.3088023 2.8259917 0.3852125
v 2.3038578 2.8259917 0.3852125
f 197 198 199 200
usemtl Ink
v 2.3038578 0.1900080 0.3802679
v 2.3038578 0.1900080 0.3852125
v 2.3038578 2.8259917 0.3852125
v 2.3038578 2.8259917 0.3802679
f 201 202 203 204
usemtl Ink
v 2.3088023 0.1900080 0.3802679
v 2.3088023 2.8259917 0.3802679
v 2.3088023 2.8259917 0.3852125
v 2.3088023 0.1900080 0.3852125
f 205 206 207 208
usemtl Ink
v 2.3038578 0.1900080 0.3802679
v 2.3088023 0.1900080 0.3802679
v 2.3088023 0.1900080 0.3852125
v 2.3038578 0.1900080 0.3852125
f 209 210 211 212
usemtl Ink
v 2.3038578 2.8259917 0.3802679
v 2.3038578 2.8259917 0.3852125
v 2.3088023 2.8259917 0.3852125
v 2.3088023 2.8259917 0.3802679
f 213 214 215 216
usemtl Ink
v 2.4290005 0.1900080 0.3802679
v 2.4290005 2.8259917 0.3802679
v 2.4339451 2.8259917 0.3802679
v 2.4339451 0.1900080 0.3802679
f 217 218 219 220
usemtl Ink
v 2.4290005 0.1900080 0.3852125
v 2.4339451 0.1900080 0.3852125
v 2.4339451 2.8259917 0.3852125
v 2.4290005 2.8259917 0.3852125
f 221 222 223 224
usemtl Ink
v 2.4290005 0.1900080 0.3802679
v 2.4290005 0.1900080 0.3852125
v 2.4290005 2.8259917 0.3852125
v 2.4290005 2.8259917 0.3802679
f 225 226 227 228
usemtl Ink
v 2.4339451 0.1900080 0.3802679
v 2.4339451 2.8259917 0.3802679
v 2.4339451 2.8259917 0.3852125
v 2.4339451 0.1900080 0.3852125
f 229 230 231 232
usemtl Ink
v 2.4290005 0.1900080 0.3802679
v 2.4339451 0.1900080 0.3802679
v 2.4339451 0.1900080 0.3852125
v 2.4290005 0.1900080 0.3852125
f 233 234 235 236
usemtl Ink
v 2.4290005 2.8259917 0.3802679
v 2.4290005 2.8259917 0.3852125
v 2.4339451 2.8259917 0.3852125
v 2.4339451 2.8259917 0.3802679
f 237 238 239 240
usemtl DarkWood
v -2.4767831 3.0294849 -0.3802679
v -2.4767831 3.1652049 -0.3802679
v 2.4767831 3.1652049 -0.3802679
v 2.4767831 3.0294849 -0.3802679
f 241 242 243 244
usemtl DarkWood
v -2.4767831 3.0294849 0.3802679
v 2.4767831 3.0294849 0.3802679
v 2.4767831 3.1652049 0.3802679
v -2.4767831 3.1652049 0.3802679
f 245 246 247 248
usemtl DarkWood
v -2.4767831 3.0294849 -0.3802679
v -2.4767831 3.0294849 0.3802679
v -2.4767831 3.1652049 0.3802679
v -2.4767831 3.1652049 -0.3802679
f 249 250 251 252
usemtl DarkWood
v 2.4767831 3.0294849 -0.3802679
v 2.4767831 3.1652049 -0.3802679
v 2.4767831 3.1652049 0.3802679
v 2.4767831 3.0294849 0.3802679
f 253 254 255 256
usemtl DarkWood
v -2.4767831 3.0294849 -0.3802679
v 2.4767831 3.0294849 -0.3802679
v 2.4767831 3.0294849 0.3802679
v -2.4767831 3.0294849 0.3802679
f 257 258 259 260
usemtl DarkWood
v -2.4767831 3.1652049 -0.3802679
v -2.4767831 3.1652049 0.3802679
v 2.4767831 3.1652049 0.3802679
v 2.4767831 3.1652049 -0.3802679
f 261 262 263 264
usemtl DarkWood
v -2.5145416 3.1652049 -0.4083172
v -2.5145416 3.1977777 -0.4083172
v 2.5145416 3.1977777 -0.4083172
v 2.5145416 3.1652049 -0.4083172
f 265 266 267 268
usemtl DarkWood
v -2.5145416 3.1652049 0.4083172
v 2.5145416 3.1652049 0.4083172
v 2.5145416 3.1977777 0.4083172
v -2.5145416 3.1977777 0.4083172
f 269 270 271 272
usemtl DarkWood
v -2.5145416 3.1652049 -0.4083172
v -2.5145416 3.1652049 0.4083172
v -2.5145416 3.1977777 0.4083172
v -2.5145416 3.1977777 -0.4083172
f 273 274 275 276
usemtl DarkWood
v 2.5145416 3.1652049 -0.4083172
v 2.5145416 3.1977777 -0.4083172
v 2.5145416 3.1977777 0.4083172
v 2.5145416 3.1652049 0.4083172
f 277 278 279 280
usemtl DarkWood
v -2.5145416 3.1652049 -0.4083172
v 2.5145416 3.1652049 -0.4083172
v 2.5145416 3.1652049 0.4083172
v -2.5145416 3.1652049 0.4083172
f 281 282 283 284
usemtl DarkWood
v -2.5145416 3.1977777 -0.4083172
v -2.5145416 3.1977777 0.4083172
v 2.5145416 3.1977777 0.4083172
v 2.5145416 3.1977777 -0.4083172
f 285 286 287 288
usemtl DarkWood
v 0.0000000 3.5034424 0.3694798
v -0.8787860 3.1977777 0.3694798
v 0.8787860 3.1977777 0.3694798
f 289 290 291
usemtl DarkWood
v 0.0000000 3.5034424 0.2615981
v 0.8787860 3.1977777 0.2615981
v -0.8787860 3.1977777 0.2615981
f 292 293 294
usemtl DarkWood
v -0.8787860 3.1977777 0.2615981
v 0.8787860 3.1977777 0.2615981
v 0.8787860 3.1977777 0.3694798
v -0.8787860 3.1977777 0.3694798
f 295 296 297 298
usemtl DarkWood
v 0.0000000 3.5034424 0.3694798
v 0.8787860 3.1977777 0.3694798
v 0.6113294 3.3506101 0.3694798
f 299 300 301
usemtl DarkWood
v 0.0000000 3.5034424 0.2615981
v 0.6113294 3.3506101 0.2615981
v 0.8787860 3.1977777 0.2615981
f 302 303 304
usemtl DarkWood
v 0.8787860 3.1977777 0.2615981
v 0.6113294 3.3506101 0.2615981
v 0.6113294 3.3506101 0.3694798
v 0.8787860 3.1977777 0.3694798
f 305 306 307 308
usemtl DarkWood
v 0.0000000 3.5034424 0.3694798
v 0.6113294 3.3506101 0.3694798
v 0.4432138 3.8702401 0.3694798
f 309 310 311
usemtl DarkWood
v 0.0000000 3.5034424 0.2615981
v 0.4432138 3.8702401 0.2615981
v 0.6113294 3.3506101 0.2615981
f 312 313 314
usemtl DarkWood
v 0.6113294 3.3506101 0.2615981
v 0.4432138 3.8702401 0.2615981
v 0.4432138 3.8702401 0.3694798
v 0.6113294 3.3506101 0.3694798
f 315 316 317 318
usemtl DarkWood
v 0.0000000 3.5034424 0.3694798
v 0.4432138 3.8702401 0.3694798
v 0.3285896 3.9619395 0.3694798
f 319 320 321
usemtl DarkWood
v 0.0000000 3.5034424 0.2615981
v 0.3285896 3.9619395 0.2615981
v 0.4432138 3.8702401 0.2615981
f 322 323 324
usemtl DarkWood
v 0.4432138 3.8702401 0.2615981
v 0.3285896 3.9619395 0.2615981
v 0.3285896 3.9619395 0.3694798
v 0.4432138 3.8702401 0.3694798
f 325 326 327 328
usemtl DarkWood
v 0.0000000 3.5034424 0.3694798
v 0.3285896 3.9619395 0.3694798
v -0.3285896 3.9619395 0.3694798
f 329 330 331
usemtl DarkWood
v 0.0000000 3.5034424 0.2615981
v -0.3285896 3.9619395 0.2615981
v 0.3285896 3.9619395 0.2615981
f 332 333 334
usemtl DarkWood
v 0.3285896 3.9619395 0.2615981
v -0.3285896 3.9619395 0.2615981
v -0.3285896 3.9619395 0.3694798
v 0.3285896 3.9619395 0.3694798
f 335 336 337 338
usemtl DarkWood
v 0.0000000 3.5034424 0.3694798
v -0.3285896 3.9619395 0.3694798
v -0.4432138 3.8702401 0.3694798
f 339 340 341
usemtl DarkWood
v 0.0000000 3.5034424 0.2615981
v -0.4432138 3.8702401 0.2615981
v -0.3285896 3.9619395 0.2615981
f 342 343 344
usemtl DarkWood
v -0.3285896 3.9619395 0.2615981
v -0.4432138 3.8702401 0.2615981
v -0.4432138 3.8702401 0.3694798
v -0.3285896 3.9619395 0.3694798
f 345 346 347 348
usemtl DarkWood
v 0.0000000 3.5034424 0.3694798
v -0.4432138 3.8702401 0.3694798
v -0.6113294 3.3506101 0.3694798
f 349 350 351
usemtl DarkWood
v 0.0000000 3.5034424 0.2615981
v -0.6113294 3.3506101 0.2615981
v -0.4432138 3.8702401 0.2615981
f 352 353 354
usemtl DarkWood
v -0.4432138 3.8702401 0.2615981
v -0.6113294 3.3506101 0.2615981
v -0.6113294 3.3506101 0.3694798
v -0.4432138 3.8702401 0.3694798
f 355 356 357 358
usemtl DarkWood
v 0.0000000 3.5034424 0.3694798
v -0.6113294 3.3506101 0.3694798
v -0.8787860 3.1977777 0.3694798
f 359 360 361
usemtl DarkWood
v 0.0000000 3.5034424 0.2615981
v -0.8787860 3.1977777 0.2615981
v -0.6113294 3.3506101 0.2615981
f 362 363 364
usemtl DarkWood
v -0.6113294 3.3506101 0.2615981
v -0.8787860 3.1977777 0.2615981
v -0.8787860 3.1977777 0.3694798
v -0.6113294 3.3506101 0.3694798
f 365 366 367 368
usemtl DarkWood
v -0.2674566 3.3276852 0.3500386
v -0.2674566 3.8625984 0.3500386
v 0.2674566 3.8625984 0.3500386
v 0.2674566 3.3276852 0.3500386
f 369 370 371 372
usemtl DarkWood
v -0.2674566 3.3276852 0.3767843
v 0.2674566 3.3276852 0.3767843
v 0.2674566 3.8625984 0.3767843
v -0.2674566 3.8625984 0.3767843
f 373 374 375 376
usemtl DarkWood
v -0.2674566 3.3276852 0.3500386
v -0.2674566 3.3276852 0.3767843
v -0.2674566 3.8625984 0.3767843
v -0.2674566 3.8625984 0.3500386
f 377 378 379 380
usemtl DarkWood
v 0.2674566 3.3276852 0.3500386
v 0.2674566 3.8625984 0.3500386
v 0.2674566 3.8625984 0.3767843
v 0.2674566 3.3276852 0.3767843
f 381 382 383 384
usemtl DarkWood
v -0.2674566 3.3276852 0.3500386
v 0.2674566 3.3276852 0.3500386
v 0.2674566 3.3276852 0.3767843
v -0.2674566 3.3276852 0.3767843
f 385 386 387 388
usemtl DarkWood
v -0.2674566 3.8625984 0.3500386
v -0.2674566 3.8625984 0.3767843
v 0.2674566 3.8625984 0.3767843
v 0.2674566 3.8625984 0.3500386
f 389 390 391 392
usemtl DarkWood
v -0.2942023 3.3009396 0.3767843
v -0.2942023 3.8893441 0.3767843
v -0.2674566 3.8893441 0.3767843
v -0.2674566 3.3009396 0.3767843
f 393 394 395 396
usemtl DarkWood
v -0.2942023 3.3009396 0.4035299
v -0.2674566 3.3009396 0.4035299
v -0.2674566 3.8893441 0.4035299
v -0.2942023 3.8893441 0.4035299
f 397 398 399 400
usemtl DarkWood
v -0.2942023 3.3009396 0.3767843
v -0.2942023 3.3009396 0.4035299
v -0.2942023 3.8893441 0.4035299
v -0.2942023 3.8893441 0.3767843
f 401 402 403 404
usemtl DarkWood
v -0.2674566 3.3009396 0.3767843
v -0.2674566 3.8893441 0.3767843
v -0.2674566 3.8893441 0.4035299
v -0.2674566 3.3009396 0.4035299
f 405 406 407 408
usemtl DarkWood
v -0.2942023 3.3009396 0.3767843
v -0.2674566 3.3009396 0.3767843
v -0.2674566 3.3009396 0.4035299
v -0.2942023 3.3009396 0.4035299
f 409 410 411 412
usemtl DarkWood
v -0.2942023 3.8893441 0.3767843
v -0.2942023 3.8893441 0.4035299
v -0.2674566 3.8893441 0.4035299
v -0.2674566 3.8893441 0.3767843
f 413 414 415 416
usemtl DarkWood
v -0.2674566 3.3009396 0.3767843
v -0.2674566 3.3276852 0.3767843
v 0.2674566 3.3276852 0.3767843
v 0.2674566 3.3009396 0.3767843
f 417 418 419 420
usemtl DarkWood
v -0.2674566 3.3009396 0.4035299
v 0.2674566 3.3009396 0.4035299
v 0.2674566 3.3276852 0.4035299
v -0.2674566 3.3276852 0.4035299
f 421 422 423 424
usemtl DarkWood
v -0.2674566 3.3009396 0.3767843
v -0.2674566 3.3009396 0.4035299
v -0.2674566 3.3276852 0.4035299
v -0.2674566 3.3276852 0.3767843
f 425 426 427 428
usemtl DarkWood
v 0.2674566 3.3009396 0.3767843
v 0.2674566 3.3276852 0.3767843
v 0.2674566 3.3276852 0.4035299
v 0.2674566 3.3009396 0.4035299
f 429 430 431 432
usemtl DarkWood
v -0.2674566 3.3009396 0.3767843
v 0.2674566 3.3009396 0.3767843
v 0.2674566 3.3009396 0.4035299
v -0.2674566 3.3009396 0.4035299
f 433 434 435 436
usemtl DarkWood
v -0.2674566 3.3276852 0.3767843
v -0.2674566 3.3276852 0.4035299
v 0.2674566 3.3276852 0.4035299
v 0.2674566 3.3276852 0.3767843
f 437 438 439 440
usemtl DarkWood
v 0.2674566 3.3009396 0.3767843
v 0.2674566 3.8893441 0.3767843
v 0.2942023 3.8893441 0.3767843
v 0.2942023 3.3009396 0.3767843
f 441 442 443 444
usemtl DarkWood
v 0.2674566 3.3009396 0.4035299
v 0.2942023 3.3009396 0.4035299
v 0.2942023 3.8893441 0.4035299
v 0.2674566 3.8893441 0.4035299
f 445 446 447 448
usemtl DarkWood
v 0.2674566 3.3009396 0.3767843
v 0.2674566 3.3009396 0.4035299
v 0.2674566 3.8893441 0.4035299
v 0.2674566 3.8893441 0.3767843
f 449 450 451 452
usemtl DarkWood
v 0.2942023 3.3009396 0.3767843
v 0.2942023 3.8893441 0.3767843
v 0.2942023 3.8893441 0.4035299
v 0.2942023 3.3009396 0.4035299
f 453 454 455 456
usemtl DarkWood
v 0.2674566 3.3009396 0.3767843
v 0.2942023 3.3009396 0.3767843
v 0.2942023 3.3009396 0.4035299
v 0.2674566 3.3009396 0.4035299
f 457 458 459 460
usemtl DarkWood
v 0.2674566 3.8893441 0.3767843
v 0.2674566 3.8893441 0.4035299
v 0.2942023 3.8893441 0.4035299
v 0.2942023 3.8893441 0.3767843
f 461 462 463 464
usemtl DarkWood
v -0.2674566 3.8625984 0.3767843
v -0.2674566 3.8893441 0.3767843
v 0.2674566 3.8893441 0.3767843
v 0.2674566 3.8625984 0.3767843
f 465 466 467 468
usemtl DarkWood
v -0.2674566 3.8625984 0.4035299
v 0.2674566 3.8625984 0.4035299
v 0.2674566 3.8893441 0.4035299
v -0.2674566 3.8893441 0.4035299
f 469 470 471 472
usemtl DarkWood
v -0.2674566 3.8625984 0.3767843
v -0.2674566 3.8625984 0.4035299
v -0.2674566 3.8893441 0.4035299
v -0.2674566 3.8893441 0.3767843
f 473 474 475 476
usemtl DarkWood
v 0.2674566 3.8625984 0.3767843
v 0.2674566 3.8893441 0.3767843
v 0.2674566 3.8893441 0.4035299
v 0.2674566 3.8625984 0.4035299
f 477 478 479 480
usemtl DarkWood
v -0.2674566 3.8625984 0.3767843
v 0.2674566 3.8625984 0.3767843
v 0.2674566 3.8625984 0.4035299
v -0.2674566 3.8625984 0.4035299
f 481 482 483 484
usemtl DarkWood
v -0.2674566 3.8893441 0.3767843
v -0.2674566 3.8893441 0.4035299
v 0.2674566 3.8893441 0.4035299
v 0.2674566 3.8893441 0.3767843
f 485 486 487 488
